#!OML:ASF F:\VICON\USERDATA\INSTALL\rory3\rory3.ASF
:FULLY-SPECIFIED
:DEGREES
49
root -0.561018 16.975 -8.05041 0.762593 3.71475 0.789898
lowerback 18.1172 0.311487 -4.00417
upperback 0.533693 -0.323872 0.932994
thorax -9.58361 0.0547622 3.38366
lowerneck -21.7012 -4.15878 -1.23955
upperneck 13.6994 -5.80709 2.89033
head 7.8971 -2.52351 0.415915
rclavicle -3.97569e-016 -3.18055e-015
rhumerus -57.0254 10.4165 -99.33
rradius 104.333
rwrist -10.399
rhand -16.211 39.784
rfingers 7.12502
rthumb 9.99662 10.0414
lclavicle -3.97569e-016 -3.18055e-015
lhumerus -35.0104 -15.9527 97.8181
lradius 110.03
lwrist 36.44
lhand -22.361 1.31155
lfingers 7.12502
lthumb 4.06019 31.2526
rfemur -44.3283 -7.12927 19.5828
rtibia 109.446
rfoot 12.2385 2.00515
rtoes 8.76297
lfemur -3.83398 -3.67012 -28.2063
ltibia 42.5425
lfoot -26.1857 4.12574
ltoes -10.5147
50
root -0.556628 17.014 -7.5575 0.723981 3.40068 0.935603
lowerback 18.5081 0.162269 -4.4853
upperback 0.391157 -0.622334 1.12974
thorax -9.92865 -0.0469282 3.96219
lowerneck -21.3062 -3.88678 -1.35119
upperneck 13.4952 -5.39409 2.85568
head 7.75651 -2.34523 0.484484
rclavicle -4.24902e-015 1.41137e-014
rhumerus -58.1593 10.6473 -99.116
rradius 105.061
rwrist -11.0602
rhand -16.2804 39.5122
rfingers 7.12502
rthumb 9.92963 9.76642
lclavicle -4.24902e-015 1.41137e-014
lhumerus -33.8712 -15.2634 97.8503
lradius 111.355
lwrist 37.4933
lhand -23.4538 2.65687
lfingers 7.12502
lthumb 3.00487 32.6154
rfemur -46.0094 -6.67875 19.8398
rtibia 107.256
rfoot 10.3017 3.22457
rtoes 5.38686
lfemur -1.3843 -3.37202 -28.4198
ltibia 41.2969
lfoot -24.9595 3.12987
ltoes -11.8347
51
root -0.548215 17.081 -7.04397 0.858979 3.40646 0.929512
lowerback 18.5494 -0.125204 -4.68597
upperback 0.245663 -1.03026 1.32283
thorax -10.0657 -0.217979 4.40189
lowerneck -21.1135 -3.61128 -1.38833
upperneck 13.6077 -5.01646 2.86008
head 7.7553 -2.16821 0.542509
rclavicle -1.06847e-014 1.09332e-014
rhumerus -59.2719 10.5744 -98.8478
rradius 105.821
rwrist -11.1868
rhand -16.5086 39.8405
rfingers 7.12502
rthumb 9.70949 10.0843
lclavicle -1.06847e-014 1.09332e-014
lhumerus -32.9117 -14.7265 97.8467
lradius 112.613
lwrist 38.6576
lhand -23.9599 3.09878
lfingers 7.12502
lthumb 2.5161 33.0637
rfemur -47.4243 -6.45112 20.2811
rtibia 104.531
rfoot 6.63498 4.11328
rtoes -6.36986
lfemur 0.882352 -3.24898 -28.3783
ltibia 39.9661
lfoot -23.432 1.841
ltoes -14.2289
52
root -0.542905 17.1773 -6.51369 1.34119 3.07677 0.464196
lowerback 18.0603 -0.368796 -4.58228
upperback 0.0573927 -1.27455 1.68836
thorax -9.96669 -0.328675 4.79923
lowerneck -21.1801 -3.38343 -1.48288
upperneck 13.9244 -4.69531 2.88866
head 7.86864 -2.0131 0.605368
rclavicle -1.88348e-014 2.72335e-014
rhumerus -60.1386 10.5646 -98.3909
rradius 106.323
rwrist -10.8041
rhand -16.8089 41.2428
rfingers 7.12502
rthumb 9.41975 11.4733
lclavicle -1.88348e-014 2.72335e-014
lhumerus -32.0529 -14.1959 97.8407
lradius 113.686
lwrist 39.7478
lhand -23.3604 2.64541
lfingers 7.12502
lthumb 3.09504 32.6027
rfemur -48.867 -5.67084 21.3466
rtibia 101.236
rfoot 7.71555 4.98303
rtoes 1.28093
lfemur 2.73389 -2.86757 -27.7423
ltibia 38.4974
lfoot -21.272 0.252209
ltoes -15.8697
53
root -0.535055 17.2762 -5.98303 1.81836 2.45844 0.154589
lowerback 17.6541 -0.491025 -4.54907
upperback -0.130488 -1.3901 1.93873
thorax -9.92754 -0.376076 5.07708
lowerneck -21.4259 -3.23509 -1.41799
upperneck 14.2533 -4.5142 2.84729
head 8.01371 -1.92104 0.599574
rclavicle -1.11816e-014 -1.39149e-014
rhumerus -60.7654 10.5681 -98.1823
rradius 106.665
rwrist -10.837
rhand -17.0945 40.5104
rfingers 7.12502
rthumb 9.14419 10.7286
lclavicle -1.11816e-014 -1.39149e-014
lhumerus -31.4479 -14.0966 97.7595
lradius 114.777
lwrist 40.7647
lhand -23.2311 2.01273
lfingers 7.12502
lthumb 3.21994 31.9682
rfemur -50.1274 -4.60324 22.1521
rtibia 97.6366
rfoot 7.39218 5.32296
rtoes 5.70262
lfemur 4.47245 -2.12664 -27.2567
ltibia 36.8959
lfoot -18.3692 -1.37226
ltoes -18.9435
54
root -0.517332 17.377 -5.44044 2.08202 2.02455 0.00979111
lowerback 17.2708 -0.645308 -4.4188
upperback -0.158741 -1.54294 2.04094
thorax -9.72376 -0.459842 5.13918
lowerneck -21.3569 -3.12969 -1.16297
upperneck 14.1044 -4.41827 2.71815
head 7.94093 -1.87747 0.529873
rclavicle -7.15625e-015 5.76476e-015
rhumerus -61.2395 10.1776 -97.8725
rradius 106.957
rwrist -10.4922
rhand -16.7591 39.9084
rfingers 7.12502
rthumb 9.46782 10.1411
lclavicle -7.15625e-015 5.76476e-015
lhumerus -31.0055 -14.4588 97.6153
lradius 115.778
lwrist 41.8001
lhand -23.1926 1.25587
lfingers 7.12502
lthumb 3.25707 31.2107
rfemur -50.7902 -3.83682 22.6318
rtibia 93.7376
rfoot 6.6173 5.51037
rtoes 6.37149
lfemur 6.45186 -1.44211 -26.9731
ltibia 35.1544
lfoot -15.0431 -2.84754
ltoes -23.4615
55
root -0.500374 17.4657 -4.89649 2.32485 1.48995 0.00964862
lowerback 16.7289 -0.779488 -4.48848
upperback -0.119885 -1.70219 2.156
thorax -9.34959 -0.544802 5.32072
lowerneck -21.0158 -2.973 -1.05704
upperneck 13.7326 -4.20488 2.60134
head 7.74991 -1.79082 0.507865
rclavicle -1.51573e-014 1.47101e-014
rhumerus -61.7422 9.8298 -97.4649
rradius 107.29
rwrist -10.0994
rhand -16.4126 40.0033
rfingers 7.12502
rthumb 9.80212 10.2515
lclavicle -1.51573e-014 1.47101e-014
lhumerus -30.7955 -14.8333 97.4583
lradius 116.659
lwrist 42.7422
lhand -22.6872 0.421164
lfingers 7.12502
lthumb 3.74518 30.368
rfemur -51.2762 -2.98673 22.8775
rtibia 89.6264
rfoot 6.52264 5.73307
rtoes 3.22778
lfemur 8.51071 -0.761001 -26.8438
ltibia 33.4222
lfoot -11.6477 -4.17867
ltoes -27.1886
56
root -0.482112 17.5668 -4.34967 2.4813 0.615007 -0.23235
lowerback 16.3213 -0.821132 -4.37952
upperback -0.0922662 -1.69854 2.3947
thorax -9.08492 -0.552977 5.50107
lowerneck -21.2373 -2.79648 -1.3893
upperneck 14.1057 -3.90435 2.74594
head 7.91613 -1.64496 0.643553
rclavicle 1.2921e-015 -7.55382e-015
rhumerus -62.3175 9.50953 -96.9287
rradius 107.611
rwrist -9.60527
rhand -16.3356 40.558
rfingers 7.12502
rthumb 9.87642 10.8096
lclavicle 1.2921e-015 -7.55382e-015
lhumerus -30.7328 -15.0838 97.3844
lradius 117.385
lwrist 43.5356
lhand -22.4929 0.588686
lfingers 7.12502
lthumb 3.93276 30.5321
rfemur -51.2821 -1.75831 23.3266
rtibia 85.1998
rfoot 5.56192 4.98642
rtoes 2.64184
lfemur 10.5495 0.139746 -26.4631
ltibia 31.6787
lfoot -7.49227 -6.78586
ltoes -28.4189
57
root -0.441633 17.6761 -3.78518 3.36049 1.34432 -0.464487
lowerback 15.3431 -1.49289 -3.5502
upperback -0.438797 -2.39218 2.57105
thorax -8.84807 -0.923318 5.33908
lowerneck -21.4411 -2.65108 -1.55998
upperneck 14.5618 -3.66865 2.75202
head 8.102 -1.53557 0.700024
rclavicle -2.48481e-015 1.03368e-014
rhumerus -62.9828 9.05686 -96.4563
rradius 107.794
rwrist -9.27451
rhand -16.1837 40.7297
rfingers 7.12502
rthumb 10.0229 10.9883
lclavicle -2.48481e-015 1.03368e-014
lhumerus -31.0021 -15.6995 97.3362
lradius 117.993
lwrist 43.5736
lhand -22.7354 1.84007
lfingers 7.12502
lthumb 3.69865 31.7877
rfemur -51.7093 -2.05031 23.7257
rtibia 80.6015
rfoot 5.37878 3.90295
rtoes 3.58722
lfemur 11.4102 -0.526036 -25.9804
ltibia 30.0231
lfoot -2.35235 -10.0702
ltoes -26.7448
58
root -0.413047 17.7505 -3.23389 3.73923 0.810779 -0.506468
lowerback 15.1723 -1.61282 -3.34639
upperback -0.850239 -2.50305 2.67483
thorax -9.19338 -0.964231 5.36845
lowerneck -20.9683 -2.53939 -1.60015
upperneck 14.6327 -3.49324 2.65245
head 8.0408 -1.46956 0.700181
rclavicle -7.20594e-015 8.34896e-015
rhumerus -63.9331 8.51714 -96.0303
rradius 108.038
rwrist -9.16557
rhand -15.829 40.2631
rfingers 7.12502
rthumb 10.3651 10.5386
lclavicle -7.20594e-015 8.34896e-015
lhumerus -31.5523 -16.5102 97.3181
lradius 118.127
lwrist 42.5847
lhand -22.9801 2.63181
lfingers 7.12502
lthumb 3.46232 32.5834
rfemur -51.6966 -1.2405 23.822
rtibia 75.9398
rfoot 4.05015 3.62578
rtoes 2.27366
lfemur 12.8196 -0.456294 -26.0023
ltibia 28.2741
lfoot 4.67701 -11.8044
ltoes -25.779
59
root -0.399412 17.8201 -2.6798 3.73101 -0.323397 -0.767017
lowerback 15.6898 -1.47503 -3.27759
upperback -1.3165 -2.30356 2.84151
thorax -10.0243 -0.827964 5.51766
lowerneck -20.232 -2.36252 -1.64779
upperneck 14.7297 -3.23813 2.58536
head 7.94253 -1.36483 0.724344
rclavicle -6.65929e-015 1.15295e-014
rhumerus -65.0041 7.95804 -95.7211
rradius 108.109
rwrist -9.03828
rhand -15.824 39.9628
rfingers 7.12502
rthumb 10.3699 10.2385
lclavicle -6.65929e-015 1.15295e-014
lhumerus -32.3633 -17.359 97.2822
lradius 117.886
lwrist 41.5725
lhand -22.8528 2.20185
lfingers 7.12502
lthumb 3.58526 32.1514
rfemur -51.0439 0.0139562 24.2382
rtibia 71.1718
rfoot 2.72641 3.76892
rtoes -4.64521
lfemur 14.708 -0.03507 -25.8923
ltibia 26.5903
lfoot 10.354 -12.5187
ltoes -27.8702
